<?xml version="1.0" encoding="UTF-8"?>
<!DOCTYPE svg PUBLIC "-//W3C//DTD SVG 1.1//EN" "http://www.w3.org/Graphics/SVG/1.1/DTD/svg11.dtd">
<!-- Creator: CorelDRAW X5 -->
<svg xmlns="http://www.w3.org/2000/svg" xml:space="preserve" width="2048px" height="2048px" style="shape-rendering:geometricPrecision; text-rendering:geometricPrecision; image-rendering:optimizeQuality; fill-rule:evenodd; clip-rule:evenodd"
viewBox="0 0 2048 2048"
 xmlns:xlink="http://www.w3.org/1999/xlink">
 <defs>
  <style type="text/css">
   <![CDATA[
    .fil18 {fill:none}
    .fil8 {fill:#0091EA}
    .fil11 {fill:#00B0FF}
    .fil13 {fill:#037AB9}
    .fil16 {fill:#0391C8}
    .fil6 {fill:#212121}
    .fil5 {fill:#3C3C3C}
    .fil14 {fill:#417631}
    .fil9 {fill:#558B2F}
    .fil15 {fill:#90A433}
    .fil12 {fill:#B66E1F}
    .fil10 {fill:#C0CA33}
    .fil0 {fill:#E0E0E0}
    .fil2 {fill:#E6B575}
    .fil7 {fill:#F57F17}
    .fil17 {fill:#004D40;fill-rule:nonzero}
    .fil4 {fill:#212121;fill-rule:nonzero}
    .fil1 {fill:#424242;fill-rule:nonzero}
    .fil3 {fill:#FFC982;fill-rule:nonzero}
   ]]>
  </style>
 </defs>
 <g id="Layer_x0020_1">
  <metadata id="CorelCorpID_0Corel-Layer"/>
  <path class="fil0" d="M351 256l1089 0 0 1536 -1089 0c-52,0 -95,-43 -95,-95l0 -1346c0,-52 43,-95 95,-95z"/>
  <g id="_360334240">
   <path class="fil1" d="M848 1000c88,0 168,36 226,94 58,58 94,138 94,226l0 57c0,20 -8,38 -22,52 -13,13 -32,22 -52,22l-493 0c-20,0 -38,-8 -52,-22 -13,-13 -22,-32 -22,-52l0 -57c0,-88 36,-168 94,-226 58,-58 138,-94 226,-94z"/>
   <polygon class="fil2" points="765,933 931,933 931,1072 765,1072 "/>
   <path class="fil3" d="M848 598c47,0 91,9 123,34 33,26 53,67 53,130 0,61 -19,117 -50,157 -32,42 -77,68 -126,68 -50,0 -94,-26 -126,-68 -31,-40 -50,-96 -50,-157 0,-63 20,-105 53,-130 32,-25 76,-34 123,-34z"/>
   <path class="fil4" d="M848 598c47,0 91,9 123,34 32,25 52,65 53,126 -28,20 -61,32 -96,32 -51,0 -96,-24 -129,-61 -30,27 -69,44 -111,44 -5,0 -11,0 -16,-1 0,-3 0,-6 0,-9 0,-63 20,-105 53,-130 32,-25 76,-34 123,-34z"/>
   <polygon class="fil5" points="829,1058 848,1072 867,1058 867,1450 829,1450 "/>
   <g>
    <polygon class="fil6" points="765,970 848,1072 778,1182 739,1024 "/>
    <polygon class="fil6" points="931,970 848,1072 918,1182 957,1024 "/>
   </g>
  </g>
  <g id="_360343216">
   <g>
    <rect class="fil7" x="1440" y="256" width="352" height="307"/>
    <rect class="fil8" x="1440" y="1178" width="352" height="307"/>
    <rect class="fil9" x="1440" y="870" width="352" height="307"/>
    <rect class="fil10" x="1440" y="563" width="352" height="307"/>
    <rect class="fil11" x="1440" y="1485" width="352" height="307"/>
   </g>
   <g>
    <polygon class="fil12" points="1488,256 1440,256 1440,563 1488,563 "/>
    <polygon class="fil13" points="1488,1178 1440,1178 1440,1485 1488,1485 "/>
    <polygon class="fil14" points="1488,870 1440,870 1440,1178 1488,1178 "/>
    <polygon class="fil15" points="1488,563 1440,563 1440,870 1488,870 "/>
    <polygon class="fil16" points="1488,1485 1440,1485 1440,1792 1488,1792 "/>
   </g>
   <path class="fil17" d="M1668 458l-23 0 -9 -24 -42 0 -9 24 -22 0 41 -105 22 0 42 105zm-39 -41l-14 -39 -14 39 29 0z"/>
   <path class="fil17" d="M1572 660l42 0c8,0 14,0 19,1 4,1 8,2 11,4 3,2 6,5 8,9 2,4 3,8 3,12 0,5 -1,9 -4,13 -3,4 -6,7 -11,9 6,2 11,5 15,9 3,4 5,10 5,16 0,5 -1,9 -3,14 -2,4 -5,8 -9,11 -4,3 -9,4 -14,5 -4,0 -12,1 -25,1l-36 0 0 -105zm21 17l0 24 14 0c8,0 13,0 15,0 4,0 6,-2 9,-4 2,-2 3,-5 3,-8 0,-3 -1,-6 -3,-8 -2,-2 -4,-3 -8,-4 -2,0 -8,0 -18,0l-12 0zm0 42l0 28 20 0c8,0 12,0 14,-1 3,-1 6,-2 8,-4 2,-2 3,-5 3,-9 0,-3 -1,-6 -2,-8 -2,-2 -4,-4 -7,-5 -3,-1 -9,-1 -19,-1l-17 0z"/>
   <path class="fil17" d="M1641 1034l20 6c-3,11 -8,20 -16,25 -7,6 -17,8 -28,8 -14,0 -25,-5 -34,-14 -9,-9 -13,-22 -13,-39 0,-17 5,-31 13,-41 9,-10 21,-14 35,-14 13,0 23,4 31,11 5,4 8,11 11,19l-21 5c-1,-5 -4,-10 -8,-13 -4,-3 -9,-5 -14,-5 -8,0 -14,3 -19,8 -5,6 -7,15 -7,27 0,13 2,23 7,28 5,6 11,8 19,8 6,0 10,-2 14,-5 4,-4 7,-9 9,-17z"/>
   <path class="fil17" d="M1572 1275l39 0c9,0 15,1 20,2 6,2 11,5 16,10 4,5 8,10 10,17 2,7 3,15 3,25 0,9 -1,16 -3,22 -3,8 -6,14 -11,18 -4,4 -9,6 -15,8 -5,1 -11,2 -19,2l-40 0 0 -105zm21 18l0 69 16 0c6,0 10,0 13,-1 3,-1 6,-2 9,-4 2,-2 4,-5 6,-10 1,-5 2,-11 2,-19 0,-8 -1,-14 -2,-19 -1,-4 -3,-8 -6,-10 -3,-2 -6,-4 -10,-5 -3,-1 -9,-1 -17,-1l-9 0z"/>
   <polygon class="fil17" points="1576,1686 1576,1582 1654,1582 1654,1600 1597,1600 1597,1623 1650,1623 1650,1640 1597,1640 1597,1669 1656,1669 1656,1686 "/>
  </g>
  <rect class="fil18" width="2048" height="2048"/>
 </g>
</svg>
