<?xml version="1.0" encoding="UTF-8"?>
<!DOCTYPE svg PUBLIC "-//W3C//DTD SVG 1.1//EN" "http://www.w3.org/Graphics/SVG/1.1/DTD/svg11.dtd">
<!-- Creator: CorelDRAW -->
<svg xmlns="http://www.w3.org/2000/svg" xml:space="preserve" width="6.82666in" height="6.82666in" style="shape-rendering:geometricPrecision; text-rendering:geometricPrecision; image-rendering:optimizeQuality; fill-rule:evenodd; clip-rule:evenodd"
viewBox="0 0 6.82666 6.82666"
 xmlns:xlink="http://www.w3.org/1999/xlink">
 <defs>
  <style type="text/css">
   <![CDATA[
    .fil2 {fill:none}
    .fil1 {fill:#AFB42B}
    .fil0 {fill:#D4E157}
    .fil6 {fill:#01579B;fill-rule:nonzero}
    .fil5 {fill:#0277BD;fill-rule:nonzero}
    .fil4 {fill:#37474F;fill-rule:nonzero}
    .fil7 {fill:#FFA726;fill-rule:nonzero}
    .fil3 {fill:#FFE082;fill-rule:nonzero}
   ]]>
  </style>
   <clipPath id="id0">
    <path d="M3.41333 -3.93701e-006c1.88514,0 3.41333,1.52819 3.41333,3.41333 0,1.88514 -1.52819,3.41333 -3.41333,3.41333 -1.88514,0 -3.41333,-1.52819 -3.41333,-3.41333 0,-1.88514 1.52819,-3.41333 3.41333,-3.41333z"/>
   </clipPath>
 </defs>
 <g id="Layer_x0020_1">
  <metadata id="CorelCorpID_0Corel-Layer"/>
  <path class="fil0" d="M3.41333 -3.93701e-006c1.88514,0 3.41333,1.52819 3.41333,3.41333 0,1.88514 -1.52819,3.41333 -3.41333,3.41333 -1.88514,0 -3.41333,-1.52819 -3.41333,-3.41333 0,-1.88514 1.52819,-3.41333 3.41333,-3.41333z"/>
  <g style="clip-path:url(#id0)">
   <g id="_351303080">
    <g>
     <polygon id="_3541453041" class="fil1" points="4.99998,1.66706 8.78624,5.45333 8.79767,5.46877 8.80821,5.48501 8.81783,5.50202 8.82652,5.51979 8.83425,5.53828 8.84098,5.55748 8.8467,5.57735 8.85137,5.59789 8.85498,5.61907 8.85748,5.64086 8.85886,5.66324 8.85909,5.68619 8.85815,5.70969 5.07189,1.92341 5.07283,1.89992 5.07259,1.87697 5.07121,1.85459 5.06871,1.8328 5.06511,1.81162 5.06043,1.79108 5.05472,1.7712 5.04798,1.75201 5.04026,1.73352 5.03157,1.71575 5.02194,1.69874 5.0114,1.6825 "/>
     <polygon id="_354145376" class="fil1" points="5.07189,1.92341 8.85815,5.70969 8.85731,5.72067 8.85622,5.73171 8.85487,5.74279 8.85326,5.7539 8.8514,5.76504 8.84928,5.77621 8.84691,5.78741 8.84428,5.79861 8.8414,5.80983 8.83826,5.82105 8.83487,5.83228 8.83123,5.8435 8.82734,5.85471 8.82319,5.86591 8.81879,5.87708 8.81414,5.88823 8.80924,5.89936 8.80408,5.91044 8.79868,5.9215 8.79302,5.9325 8.78711,5.94345 8.78096,5.95435 8.77455,5.9652 8.7679,5.97597 8.76099,5.98668 8.75384,5.99731 8.74644,6.00786 8.73879,6.01833 8.73089,6.0287 8.72275,6.03898 8.71436,6.04917 8.70572,6.05924 4.91945,2.27297 4.92809,2.2629 4.93648,2.25271 4.94463,2.24243 4.95252,2.23206 4.96017,2.22159 4.96757,2.21104 4.97472,2.20041 4.98163,2.1897 4.98828,2.17893 4.99469,2.16808 5.00085,2.15718 5.00675,2.14623 5.01241,2.13522 5.01781,2.12417 5.02297,2.11309 5.02787,2.10196 5.03252,2.09081 5.03693,2.07963 5.04107,2.06844 5.04496,2.05722 5.04861,2.046 5.052,2.03478 5.05513,2.02356 5.05802,2.01234 5.06064,2.00113 5.06301,1.98994 5.06513,1.97877 5.06699,1.96763 5.0686,1.95652 5.06995,1.94544 5.07105,1.9344 "/>
     <polygon id="_354145976" class="fil1" points="4.92025,2.27367 8.70652,6.05994 8.65565,6.11788 4.86938,2.33161 "/>
     <polygon id="_354146216" class="fil1" points="4.86938,2.33161 8.65565,6.11788 6.42996,8.65306 2.6437,4.86678 "/>
     <polygon id="_354146264" class="fil1" points="2.6437,4.86678 6.42996,8.65306 6.20084,8.45346 2.41457,4.66719 "/>
     <polygon id="_354145904" class="fil1" points="2.41457,4.66719 6.20084,8.45346 6.0481,8.32039 2.26183,4.53412 "/>
     <polygon id="_354145664" class="fil1" points="2.26183,4.53412 6.0481,8.32039 5.83132,8.13155 2.04505,4.34528 "/>
     <polygon id="_354145592" class="fil1" points="2.6389,4.86739 6.42517,8.65366 5.65576,9.01233 1.86949,5.22606 "/>
     <polygon id="_354145688" class="fil1" points="1.86949,5.22606 5.65576,9.01233 5.54004,9.06627 1.75378,5.28 "/>
    </g>
    <path id="_351302408" class="fil1" d="M4.64984 1.5556c0.249689,-0.0499291 0.438469,0.114382 0.422047,0.367811 -0.0075748,0.116957 -0.0589843,0.242654 -0.152433,0.349559l0.000795276 0.000692913 -0.0508701 0.0579449 -2.22568 2.53517 -0.229122 -0.199598 -0.15274 -0.133063 -0.216783 -0.188846 2.22586 -2.53537 0.0506929 -0.0577441 0.000795276 0.000692913c0.0938071,-0.106606 0.212035,-0.174169 0.327437,-0.197248zm-2.60365 2.79493l0.592709 0.516862 -0.769406 0.358665 -0.115717 0.0539449 0.038252 -0.121587 0.254161 -0.807886z"/>
   </g>
  </g>
  <path class="fil2" d="M3.41333 -3.93701e-006c1.88514,0 3.41333,1.52819 3.41333,3.41333 0,1.88514 -1.52819,3.41333 -3.41333,3.41333 -1.88514,0 -3.41333,-1.52819 -3.41333,-3.41333 0,-1.88514 1.52819,-3.41333 3.41333,-3.41333z"/>
  <polygon class="fil3" points="2.6389,4.86739 1.86949,5.22606 1.75378,5.28 1.79203,5.15841 2.04619,4.35053 "/>
  <polygon class="fil4" points="2.04308,5.14514 1.86949,5.22606 1.75378,5.28 1.79203,5.15841 1.84935,4.9762 "/>
  <polygon class="fil5" points="4.36484,1.78981 4.87717,2.23613 4.92025,2.27367 4.86938,2.33161 2.6437,4.86678 2.04505,4.34528 4.27091,1.8099 4.32161,1.75216 "/>
  <polygon class="fil6" points="4.55072,1.95175 4.70347,2.08482 2.41458,4.66719 2.26183,4.53412 "/>
  <path class="fil7" d="M4.3218 1.75353c0.0939055,-0.106996 0.21239,-0.174799 0.328035,-0.197925 0.249689,-0.0499291 0.438469,0.114382 0.422047,0.367811 -0.00758268,0.117043 -0.0590669,0.24285 -0.152654,0.349811l0 0 -0.597429 -0.519697z"/>
 </g>
</svg>
