<?xml version="1.0" encoding="UTF-8"?>
<!DOCTYPE svg PUBLIC "-//W3C//DTD SVG 1.1//EN" "http://www.w3.org/Graphics/SVG/1.1/DTD/svg11.dtd">
<!-- Creator: CorelDRAW -->
<svg xmlns="http://www.w3.org/2000/svg" xml:space="preserve" width="2048px" height="2048px" style="shape-rendering:geometricPrecision; text-rendering:geometricPrecision; image-rendering:optimizeQuality; fill-rule:evenodd; clip-rule:evenodd"
viewBox="0 0 2048 2048"
 xmlns:xlink="http://www.w3.org/1999/xlink">
 <defs>
  <style type="text/css">
   <![CDATA[
    .fil2 {fill:none}
    .fil4 {fill:#26C6DA}
    .fil1 {fill:#303F9F}
    .fil0 {fill:#5C6BC0}
    .fil8 {fill:#6D4C41}
    .fil5 {fill:#8D6E63}
    .fil3 {fill:#B2EBF2}
    .fil7 {fill:#FF8F00}
    .fil6 {fill:#FFB300}
   ]]>
  </style>
   <clipPath id="id0">
    <path d="M1024 0c565.541,0 1024,458.459 1024,1024 0,565.541 -458.459,1024 -1024,1024 -565.541,0 -1024,-458.459 -1024,-1024 0,-565.541 458.459,-1024 1024,-1024z"/>
   </clipPath>
 </defs>
 <g id="Layer_x0020_1">
  <metadata id="CorelCorpID_0Corel-Layer"/>
  <path class="fil0" d="M1024 0c565.541,0 1024,458.459 1024,1024 0,565.541 -458.459,1024 -1024,1024 -565.541,0 -1024,-458.459 -1024,-1024 0,-565.541 458.459,-1024 1024,-1024z"/>
  <g style="clip-path:url(#id0)">
   <g id="_308713216">
    <g>
     <polygon id="_3039332721" class="fil1" points="1420.67,673.278 2556.55,1809.16 2556.55,1809.88 1420.67,673.999 "/>
     <polygon id="_303933056" class="fil1" points="1420.67,673.999 2556.55,1809.88 2556.55,2719.88 1420.67,1584 "/>
     <polygon id="_303901376" class="fil1" points="1420.67,1584 2556.55,2719.88 1763.21,2719.88 627.332,1584 "/>
    </g>
    <polygon id="_308712928" class="fil1" points="627.332,463.999 1187.28,463.999 1187.33,464.051 1187.33,463.999 1202.81,477.928 1203.01,478.108 1420.67,673.278 1420.67,673.999 1420.67,1584 627.332,1584 "/>
   </g>
  </g>
  <path class="fil2" d="M1024 0c565.541,0 1024,458.459 1024,1024 0,565.541 -458.459,1024 -1024,1024 -565.541,0 -1024,-458.459 -1024,-1024 0,-565.541 458.459,-1024 1024,-1024z"/>
  <polygon class="fil3" points="627.332,463.999 1187.28,463.999 1420.67,673.278 1420.67,1584 627.332,1584 "/>
  <polygon class="fil4" points="1187.33,463.999 1420.67,673.999 1187.33,673.999 "/>
  <polygon class="fil5" points="864.511,930.666 1192.97,930.666 1192.97,1350.67 864.511,1350.67 "/>
  <polygon class="fil6" points="935.407,836.194 1122.07,836.194 1122.07,882.862 935.407,882.862 "/>
  <polygon class="fil7" points="795.407,883.668 1262.07,883.668 1262.07,930.336 795.407,930.336 "/>
  <polygon class="fil8" points="1110.41,1000.67 1110.41,1280.67 1063.74,1280.67 1063.74,1000.67 "/>
  <polygon class="fil8" points="993.741,1000.67 993.741,1280.67 947.074,1280.67 947.074,1000.67 "/>
 </g>
</svg>
